<svg width="37" height="37" viewBox="0 0 37 37" fill="none" xmlns="http://www.w3.org/2000/svg">
<path d="M36.8181 18.3182C36.8181 8.30422 28.6957 0.181824 18.6818 0.181824C8.66781 0.181824 0.54541 8.30422 0.54541 18.3182C0.54541 27.3687 7.17652 34.8747 15.848 36.2349V23.5607H11.243V18.3182H15.848V14.3225C15.848 9.7778 18.5578 7.26634 22.6987 7.26634C24.6824 7.26634 26.7581 7.62057 26.7581 7.62057V12.0838H24.4698C22.2169 12.0838 21.5156 13.483 21.5156 14.9176V18.3182H26.5456L25.7415 23.5607H21.5156V36.2349C30.187 34.8747 36.8181 27.3722 36.8181 18.3182Z" fill="#1977F3"/>
<path d="M25.7415 23.5607L26.5456 18.3182H21.5156V14.9176C21.5156 13.483 22.2169 12.0838 24.4698 12.0838H26.7581V7.62057C26.7581 7.62057 24.6824 7.26634 22.6987 7.26634C18.5578 7.26634 15.848 9.77426 15.848 14.3225V18.3182H11.243V23.5607H15.848V36.2349C16.7725 36.3802 17.7183 36.4546 18.6818 36.4546C19.6453 36.4546 20.5911 36.3766 21.5156 36.2349V23.5607H25.7415Z" fill="#FEFEFE"/>
</svg>
