<svg width="31" height="32" viewBox="0 0 31 32" fill="none" xmlns="http://www.w3.org/2000/svg">
<path d="M30.5908 15.9802C30.5908 14.9529 30.4998 13.9777 30.3437 13.0284H15.6498V18.893H24.063C23.6859 20.8175 22.5806 22.443 20.9422 23.5483V27.4493H25.9615C28.9003 24.7316 30.5908 20.7265 30.5908 15.9802Z" fill="#4285F4"/>
<path d="M15.6499 31.2333C19.863 31.2333 23.3869 29.8289 25.9616 27.4493L20.9423 23.5482C19.5379 24.4845 17.7564 25.0566 15.6499 25.0566C11.5798 25.0566 8.13383 22.3129 6.8985 18.6069H1.7231V22.625C4.28479 27.7224 9.55121 31.2333 15.6499 31.2333Z" fill="#34A853"/>
<path d="M6.8985 18.607C6.57341 17.6707 6.40437 16.6694 6.40437 15.6292C6.40437 14.5889 6.58642 13.5876 6.8985 12.6514V8.63329H1.72311C0.656818 10.7399 0.0456543 13.1065 0.0456543 15.6292C0.0456543 18.1518 0.656818 20.5185 1.72311 22.6251L6.8985 18.607Z" fill="#FBBC05"/>
<path d="M15.6499 6.20163C17.9515 6.20163 20.006 6.99484 21.6315 8.54226L26.0787 4.09506C23.3869 1.57238 19.863 0.0249634 15.6499 0.0249634C9.55121 0.0249634 4.28479 3.53591 1.7231 8.63329L6.8985 12.6514C8.13383 8.94537 11.5798 6.20163 15.6499 6.20163Z" fill="#EA4335"/>
</svg>
