<svg width="32" height="33" viewBox="0 0 32 33" fill="none" xmlns="http://www.w3.org/2000/svg">
<path d="M30.1875 16.9547L21.9375 10.3031M30.1875 16.9547L21.9375 23.6062M30.1875 16.9547H9.5625M19.875 31.9207C17.4373 31.9207 15.0235 31.5336 12.7714 30.7815C10.5193 30.0294 8.47302 28.927 6.74933 27.5373C5.02564 26.1475 3.65834 24.4977 2.72549 22.6819C1.79263 20.8662 1.3125 18.9201 1.3125 16.9547C1.3125 14.9893 1.79263 13.0432 2.72549 11.2274C3.65834 9.41168 5.02564 7.76184 6.74933 6.37212C8.47302 4.98239 10.5193 3.88 12.7714 3.12789C15.0235 2.37578 17.4373 1.98867 19.875 1.98867" stroke="#292D32" stroke-width="2" stroke-linecap="round" stroke-linejoin="round"/>
</svg>
