<svg width="35" height="35" viewBox="0 0 35 35" fill="none" xmlns="http://www.w3.org/2000/svg">
<path d="M21.7604 17.8542L21.2357 16.9922C20.896 17.199 20.7095 17.5859 20.7594 17.9805C20.809 18.3748 21.0857 18.7034 21.4661 18.8195L21.7604 17.8542ZM12.3292 17.8542L12.6235 18.8195C13.0038 18.7034 13.2805 18.3748 13.3304 17.9805C13.38 17.5859 13.1936 17.199 12.8539 16.9922L12.3292 17.8542ZM25.1177 10.091C25.1177 13.0133 23.5655 15.574 21.2357 16.9922L22.2851 18.7161C25.1913 16.947 27.1358 13.7465 27.1358 10.091H25.1177ZM17.0449 2.01819C21.5033 2.01819 25.1177 5.6325 25.1177 10.091H27.1358C27.1358 4.51789 22.6179 0 17.0449 0V2.01819ZM8.97202 10.091C8.97202 5.6325 12.5863 2.01819 17.0449 2.01819V0C11.4717 0 6.95383 4.51789 6.95383 10.091H8.97202ZM12.8539 16.9922C10.5242 15.574 8.97202 13.0133 8.97202 10.091H6.95383C6.95383 13.7465 8.89828 16.947 11.8045 18.7161L12.8539 16.9922ZM12.0349 16.8889C5.66394 18.8316 0.866149 24.3806 0.0223017 31.1613L2.02504 31.4106C2.76894 25.4329 7.00196 20.5335 12.6235 18.8195L12.0349 16.8889ZM0.0223017 31.1613C-0.200729 32.9535 1.2839 34.3093 2.91744 34.3093V32.2911C2.32177 32.2911 1.97276 31.8307 2.02504 31.4106L0.0223017 31.1613ZM2.91744 34.3093H31.1722V32.2911H2.91744V34.3093ZM31.1722 34.3093C32.8058 34.3093 34.2903 32.9535 34.0673 31.1613L32.0645 31.4106C32.1168 31.8307 31.7678 32.2911 31.1722 32.2911V34.3093ZM34.0673 31.1613C33.2235 24.3806 28.4257 18.8316 22.0546 16.8889L21.4661 18.8195C27.0876 20.5335 31.3206 25.4329 32.0645 31.4106L34.0673 31.1613Z" fill="#292D32"/>
</svg>
